<?xml version="1.0" encoding="utf-8"?>
<!-- Generator: Adobe Illustrator 18.1.1, SVG Export Plug-In . SVG Version: 6.00 Build 0)  -->
<!DOCTYPE svg PUBLIC "-//W3C//DTD SVG 1.1//EN" "http://www.w3.org/Graphics/SVG/1.1/DTD/svg11.dtd">
<svg version="1.1" id="Layer_1" xmlns="http://www.w3.org/2000/svg" xmlns:xlink="http://www.w3.org/1999/xlink" x="0px" y="0px"
	 viewBox="0 0 200 200" enable-background="new 0 0 200 200" xml:space="preserve">
<rect x="-257.8" y="-22.2" display="none" fill="#2E6D82" stroke="#000000" stroke-width="0.8796" stroke-miterlimit="10" width="1467.4" height="418.2"/>
<g>
	<g display="none">
		<path display="inline" fill-rule="evenodd" clip-rule="evenodd" fill="#555555" d="M53.1,44.4c0,0.1,0,0.2,0,0.3c0,0,0,0,0,0
			C53.1,44.6,53.1,44.5,53.1,44.4z"/>
	</g>
	<g opacity="0.5">
		<path fill-rule="evenodd" clip-rule="evenodd" fill="#FFFFFF" d="M53.3,81c1.3,1.8,12.3,5.2,28.5,8.7
			c16.3,3.1,33.3,15.5,46.5,11.7c8.9-2.6,18.6-25.6,18.6-29c0-0.1,0-0.2,0-0.3c0-2.4-1.8-4.3-4.8-5.9c-12.4-6.4-14.8-8.7-19.4-7.4
			C98.7,65.3,56.4,61.9,53.3,81z"/>
	</g>
	<g opacity="0.5">
		<path fill-rule="evenodd" clip-rule="evenodd" fill="#FFFFFF" d="M53.3,127.7c1.3,1.8,12.3,5.2,28.5,8.7
			c18.2,3.3,34.1,14.2,47.3,10.3c8.9-2.6,17.8-24.2,17.8-27.7c0-0.1,0-0.2,0-0.3c0-2.4-1.8-4.3-4.8-5.9c-9.5-5-22-10.6-26.6-9.3
			C91.5,110.1,59.4,111.5,53.3,127.7z"/>
	</g>
	<g>
		<path fill-rule="evenodd" clip-rule="evenodd" fill="#555555" d="M53.1,91c0,0.1,0,0.2,0,0.3c0,0,0,0,0,0
			C53.1,91.2,53.1,91.1,53.1,91z"/>
	</g>
	<g display="none">
		<path display="inline" fill-rule="evenodd" clip-rule="evenodd" fill="#555555" d="M53.1,81c0,0,0.1,0,0.1,0
			c-0.1-0.1-0.1-0.2-0.1-0.3C53.1,80.8,53.1,80.9,53.1,81z"/>
	</g>
	<g display="none">
		<path display="inline" fill-rule="evenodd" clip-rule="evenodd" fill="#555555" d="M53.1,127.7c0,0,0.1,0,0.1,0
			c-0.1-0.1-0.1-0.2-0.1-0.3C53.1,127.4,53.1,127.5,53.1,127.7z"/>
	</g>
	<g>
		<g>
			<path fill-rule="evenodd" clip-rule="evenodd" fill="#FFFFFF" d="M129,34.7c-22,6.4-57,10-75.9,10c0,0,0,0,0,0c0,5.4,0,24.3,0,36
				c0,0.1,0,0.2,0.1,0.3c12.9,0,52.6-4.2,76.5-10.8c4.6-1.3,9.1-2.6,12.3-4.1c2.9-1.3,4.8-2.7,4.8-4.2c0-11.9,0-31.4,0-36.3
				C146.9,29.1,138,32.1,129,34.7z"/>
		</g>
		<g>
			<path fill-rule="evenodd" clip-rule="evenodd" fill="#FFFFFF" d="M129,81.4c-13.2,3.8-31,6.6-47.2,8.3
				c-10.9,1.1-21.1,1.7-28.6,1.7c0,0,0,0,0,0c0,5.4,0,24.3,0,36c0,0.1,0,0.2,0.1,0.3c12.9,0,52.6-4.2,76.5-10.8
				c4.6-1.3,9.1-2.6,12.3-4.1c2.9-1.3,4.8-2.7,4.8-4.2c0-2.7,0-5.8,0-9c0-8.3,0-21,0-27.3C146.9,75.8,138,78.8,129,81.4z"/>
		</g>
		<g>
			<path fill-rule="evenodd" clip-rule="evenodd" fill="#FFFFFF" d="M129,128c-13.2,3.8-31,6.6-47.2,8.3
				c-10.9,1.1-21.1,1.7-28.7,1.7c0,6.2,0,27.8,0,36.3c12.7,0,52.6-4.2,76.7-10.8c8.9-2.4,17.1-5.2,17.1-8.2c0-2.7,0-5.8,0-9
				c0-8.3,0-21,0-27.3C146.9,122.4,138,125.5,129,128z"/>
		</g>
	</g>
</g>
</svg>
