<svg xmlns="http://www.w3.org/2000/svg" xmlns:xlink="http://www.w3.org/1999/xlink" viewBox="0 0 440 160" enable-background="new 0 0 440 160"><g><circle fill="#0E3A51" cx="80" cy="80.5" r="75"/><defs><circle id="a" cx="80" cy="80.5" r="75"/></defs><clipPath id="b"><use xlink:href="#a" overflow="visible"/></clipPath><g clip-path="url(#b)"><path fill="#15A9CE" d="M70.7 87.7h146.2c4.8 0 8.7-3.9 8.7-8.7 0-4.8-3.9-8.7-8.7-8.7h-146.2c-4.8 0-8.7 3.9-8.7 8.7 0 4.8 3.9 8.7 8.7 8.7z"/><path fill="#92D13D" d="M88.7 59.3h146.2c4.8 0 8.7-3.9 8.7-8.7 0-4.8-3.9-8.7-8.7-8.7h-146.2c-4.8 0-8.7 3.9-8.7 8.7 0 4.9 3.9 8.7 8.7 8.7z"/><path fill="#DE3423" d="M52.7 116h146.2c4.8 0 8.7-3.9 8.7-8.7 0-4.8-3.9-8.7-8.7-8.7h-146.2c-4.8 0-8.7 3.9-8.7 8.7 0 4.8 3.9 8.7 8.7 8.7z"/></g><g fill="#0E3A51"><path d="M181.2 97.8c2 6.5 8.7 11.4 19 11.4 12.4 0 16.6-5.7 16.6-11.5 0-3.7-1.4-6.6-4.2-8.5-2.7-2-7.6-4.4-14.7-7.2-13.8-5.4-20.5-11.1-20.5-22 0-11.5 9.4-19.9 22.8-19.9 10.2 0 17.5 4.3 21.9 13l-9 4.6c-2.7-5-6.9-7.5-12.7-7.5-7 0-11.8 3.6-11.8 9.8 0 6.1 5.1 9.3 16.5 13.6 15.6 6 22.9 12.6 22.9 24.1 0 12-9.7 21.9-27.7 21.9-14.4 0-25.5-6.6-28.5-18.1l9.4-3.7zM235.3 13.2h11.1v84.8c0 8.4 2.4 11.7 9.4 11.7 2.5 0 4.3-.2 5.4-.3v9.4c-1.3.8-3.7 1.2-6.9 1.2-4.6 0-7.9-.8-12.3-3.3-4.2-2.5-6.7-8.8-6.7-18v-85.5zM268.2 27.5c-3-3-3-7.8 0-10.7 3-3 7.5-3 10.5 0 3 2.9 3 7.7 0 10.7-3 2.8-7.5 2.8-10.5 0zm-.3 14.7h11.1v59.4c0 5.5 1.5 7.9 5.7 7.9 1.2 0 2.5-.1 3.9-.3v9.1c-1.8.8-4.2 1.2-7 1.2-9.1 0-13.6-5.4-13.6-16v-61.3zM358.5 51.3l-6.8 7.8c-5.7-5.8-13-8.8-21.9-8.8-8.4 0-15.3 2.8-20.8 8.5-5.5 5.5-8.2 12.6-8.2 21.1 0 8.5 2.7 15.6 8.2 21.3 5.5 5.5 12.4 8.4 20.8 8.4 8.8 0 16.2-3 21.9-8.8l6.8 7.8c-7.3 7.6-16.9 11.4-28.6 11.4-11.2 0-20.7-3.8-28.5-11.4s-11.8-17.2-11.8-28.6c0-11.4 3.9-20.8 11.7-28.5 7.8-7.7 17.2-11.5 28.5-11.5 11.7-.1 21.3 3.7 28.7 11.3zM364.8 117.8v-104.6h11.1v66.3l32.4-37.3h12.7l-28.6 33.1 32.7 42.4h-13.2l-26.5-34.5-9.5 11v23.5h-11.1z"/></g></g></svg>