<svg xmlns="http://www.w3.org/2000/svg" viewBox="0 0 440 160" enable-background="new 0 0 440 160"><g><g fill="#fff"><path d="M182.1 97.3c2 6.5 8.7 11.4 19 11.4 12.4 0 16.6-5.7 16.6-11.5 0-3.7-1.3-6.6-4.2-8.5-2.7-2-7.7-4.4-14.7-7.2-13.8-5.4-20.5-11.1-20.5-22 0-11.5 9.5-19.9 22.8-19.9 10.2 0 17.5 4.3 21.9 13l-9 4.6c-2.7-5-6.9-7.5-12.7-7.5-7 0-11.8 3.6-11.8 9.8 0 6.1 5.1 9.3 16.5 13.6 15.6 6 22.9 12.6 22.9 24.1 0 12-9.7 21.9-27.7 21.9-14.4 0-25.5-6.6-28.5-18.1l9.4-3.7zM236.3 12.7h11.1v84.7c0 8.4 2.4 11.7 9.5 11.7 2.5 0 4.3-.2 5.4-.3v9.4c-1.3.8-3.7 1.2-6.9 1.2-4.7 0-8-.8-12.3-3.3-4.2-2.5-6.7-8.8-6.7-18v-85.4zM269.1 27c-3-3-3-7.8 0-10.7 3-3 7.5-3 10.5 0 3 2.9 3 7.7 0 10.7-3 2.8-7.5 2.8-10.5 0zm-.3 14.7h11.1v59.4c0 5.5 1.5 7.9 5.7 7.9 1.2 0 2.5-.1 3.9-.3v9.1c-1.8.8-4.2 1.2-7 1.2-9.1 0-13.6-5.4-13.6-16v-61.3zM359.4 50.8l-6.8 7.8c-5.7-5.8-13-8.8-21.9-8.8-8.4 0-15.3 2.8-20.8 8.5-5.6 5.5-8.2 12.6-8.2 21.1 0 8.5 2.7 15.6 8.2 21.3 5.5 5.5 12.4 8.4 20.8 8.4 8.8 0 16.2-3 21.9-8.8l6.8 7.8c-7.4 7.6-17 11.4-28.6 11.4-11.2 0-20.7-3.8-28.5-11.4s-11.7-17.2-11.7-28.6c0-11.4 3.9-20.8 11.7-28.5 7.8-7.7 17.2-11.5 28.5-11.5 11.7-.1 21.3 3.7 28.6 11.3zM365.8 117.3v-104.6h11.1v66.3l32.4-37.3h12.7l-28.6 33.1 32.7 42.4h-13.2l-26.5-34.5-9.5 11v23.5h-11.1z"/></g><path fill="#fff" d="M53.2 117c-4.8 0-8.2-4.6-8.2-9.4v-.2c0-4.8 3.4-8.4 8.2-8.4h100c.9-3 1.6-7 2-11h-84c-4.8 0-8.7-3.7-8.7-8.5s3.9-8.5 8.7-8.5h83.7c-.5-4-1.2-8-2.3-11h-63.4c-4.8 0-8.7-3.7-8.7-8.5s3.9-8.5 8.7-8.5h56c-13-23-37.1-37.5-64.7-37.5-41.4 0-75 33.3-75 74.8s33.6 75.4 75 75.4c28.4 0 53.1-15.6 65.8-38.6h-93.1z"/></g></svg>